<svg xmlns="http://www.w3.org/2000/svg" xmlns:xlink="http://www.w3.org/1999/xlink" width="78" zoomAndPan="magnify" viewBox="0 0 58.5 42" height="56" preserveAspectRatio="xMidYMid meet" version="1.0"><defs><clipPath id="a01fe0b7dd"><path d="M 22 3.066406 L 54 3.066406 L 54 40 L 22 40 Z M 22 3.066406 " clip-rule="nonzero"/></clipPath><clipPath id="6334d8d584"><path d="M 1.914062 3.066406 L 14 3.066406 L 14 16 L 1.914062 16 Z M 1.914062 3.066406 " clip-rule="nonzero"/></clipPath><clipPath id="0ad1cbbbbe"><path d="M 1.914062 25 L 14 25 L 14 40 L 1.914062 40 Z M 1.914062 25 " clip-rule="nonzero"/></clipPath></defs><g clip-path="url(#a01fe0b7dd)"><path fill="#545454" d="M 22.941406 3.070312 L 32.6875 3.070312 L 32.6875 16.421875 L 43.960938 16.421875 L 43.960938 3.070312 L 53.636719 3.070312 L 53.636719 39.15625 L 43.960938 39.15625 L 43.960938 24.921875 L 32.6875 24.921875 L 32.6875 39.15625 L 22.941406 39.15625 Z M 22.941406 3.070312 " fill-opacity="1" fill-rule="nonzero"/></g><g clip-path="url(#6334d8d584)"><path fill="#126fb5" d="M 1.957031 3.066406 L 13.089844 3.066406 L 13.089844 15.882812 L 1.957031 15.882812 Z M 1.957031 3.066406 " fill-opacity="1" fill-rule="nonzero"/></g><g clip-path="url(#0ad1cbbbbe)"><path fill="#149244" d="M 1.957031 25.882812 L 13.089844 25.882812 L 13.089844 39.15625 L 1.957031 39.15625 Z M 1.957031 25.882812 " fill-opacity="1" fill-rule="nonzero"/></g></svg>