<svg xmlns="http://www.w3.org/2000/svg" xmlns:xlink="http://www.w3.org/1999/xlink" width="300" zoomAndPan="magnify" viewBox="0 0 224.87999 45.749998" height="61" preserveAspectRatio="xMidYMid meet" version="1.0"><defs><clipPath id="899319a1b7"><path d="M 140 12 L 170 12 L 170 44.039062 L 140 44.039062 Z M 140 12 " clip-rule="nonzero"/></clipPath><clipPath id="93d9ad3fc5"><path d="M 206 1.523438 L 216.921875 1.523438 L 216.921875 44 L 206 44 Z M 206 1.523438 " clip-rule="nonzero"/></clipPath><clipPath id="19a1dffac3"><path d="M 32 1.523438 L 68 1.523438 L 68 44 L 32 44 Z M 32 1.523438 " clip-rule="nonzero"/></clipPath><clipPath id="bc6275f393"><path d="M 8.0625 1.523438 L 22 1.523438 L 22 17 L 8.0625 17 Z M 8.0625 1.523438 " clip-rule="nonzero"/></clipPath><clipPath id="71b74209e4"><path d="M 8.0625 27 L 22 27 L 22 44 L 8.0625 44 Z M 8.0625 27 " clip-rule="nonzero"/></clipPath></defs><path fill="#545454" d="M 107.074219 12.867188 L 116.664062 12.867188 L 116.664062 16.996094 L 116.773438 16.996094 C 118.582031 13.910156 122.652344 11.996094 126.253906 11.996094 C 136.300781 11.996094 137.121094 19.320312 137.121094 23.683594 L 137.121094 43.054688 L 127.238281 43.054688 L 127.238281 28.457031 C 127.238281 24.324219 127.707031 20.136719 122.300781 20.136719 C 118.582031 20.136719 116.949219 23.277344 116.949219 26.597656 L 116.949219 43.054688 L 107.074219 43.054688 Z M 107.074219 12.867188 " fill-opacity="1" fill-rule="nonzero"/><g clip-path="url(#899319a1b7)"><path fill="#545454" d="M 150.125 33.21875 C 150.125 34.730469 150.765625 35.835938 151.75 36.597656 C 152.679688 37.292969 154.019531 37.644531 155.40625 37.644531 C 157.328125 37.644531 160.0625 36.828125 160.0625 34.4375 C 160.0625 32.117188 156.984375 31.652344 155.238281 31.242188 C 149.023438 29.671875 141.230469 29.5 141.230469 21.355469 C 141.230469 14.082031 149.074219 12.105469 155.003906 12.105469 C 161.625 12.105469 168.546875 14.019531 168.894531 21.875 L 159.769531 21.875 C 159.769531 20.597656 159.308594 19.78125 158.492188 19.257812 C 157.675781 18.738281 156.574219 18.503906 155.355469 18.503906 C 153.726562 18.503906 151.109375 18.675781 151.109375 20.769531 C 151.109375 23.621094 157.734375 24.148438 162.265625 25.132812 C 168.367188 26.359375 169.941406 30.777344 169.941406 33.277344 C 169.941406 41.363281 162.265625 44.039062 155.472656 44.039062 C 148.320312 44.039062 141 41.65625 140.707031 33.21875 Z M 150.125 33.21875 " fill-opacity="1" fill-rule="nonzero"/></g><path fill="#545454" d="M 187.945312 36.304688 C 192.535156 36.304688 193.988281 31.773438 193.988281 27.933594 C 193.988281 24.097656 192.535156 19.503906 187.945312 19.503906 C 183.347656 19.503906 181.957031 24.097656 181.957031 27.933594 C 181.957031 31.773438 183.347656 36.304688 187.945312 36.304688 M 187.945312 11.9375 C 197.296875 11.9375 203.863281 18.863281 203.863281 27.933594 C 203.863281 37.007812 197.296875 43.871094 187.945312 43.871094 C 178.585938 43.871094 172.082031 37.007812 172.082031 27.933594 C 172.082031 18.863281 178.585938 11.9375 187.945312 11.9375 " fill-opacity="1" fill-rule="nonzero"/><g clip-path="url(#93d9ad3fc5)"><path fill="#545454" d="M 206.984375 1.523438 L 216.867188 1.523438 L 216.867188 43.054688 L 206.984375 43.054688 Z M 206.984375 1.523438 " fill-opacity="1" fill-rule="nonzero"/></g><g clip-path="url(#19a1dffac3)"><path fill="#545454" d="M 32.433594 1.523438 L 43.722656 1.523438 L 43.722656 16.890625 L 56.78125 16.890625 L 56.78125 1.523438 L 67.992188 1.523438 L 67.992188 43.054688 L 56.78125 43.054688 L 56.78125 26.675781 L 43.722656 26.675781 L 43.722656 43.054688 L 32.433594 43.054688 Z M 32.433594 1.523438 " fill-opacity="1" fill-rule="nonzero"/></g><g clip-path="url(#bc6275f393)"><path fill="#126fb5" d="M 8.121094 1.523438 L 21.015625 1.523438 L 21.015625 16.269531 L 8.121094 16.269531 Z M 8.121094 1.523438 " fill-opacity="1" fill-rule="nonzero"/></g><g clip-path="url(#71b74209e4)"><path fill="#149244" d="M 8.121094 27.78125 L 21.015625 27.78125 L 21.015625 43.054688 L 8.121094 43.054688 Z M 8.121094 27.78125 " fill-opacity="1" fill-rule="nonzero"/></g><path fill="#545454" d="M 85.761719 37.820312 C 90.472656 37.820312 92.039062 35.148438 91.804688 28.921875 C 90.410156 29.792969 87.855469 29.972656 85.703125 30.554688 C 83.496094 31.074219 81.640625 32.003906 81.640625 34.390625 C 81.640625 36.835938 83.558594 37.820312 85.761719 37.820312 M 72.980469 22.179688 C 73.160156 18.214844 75.015625 15.664062 77.6875 14.089844 C 80.359375 12.582031 83.847656 12.003906 87.273438 12.003906 C 94.417969 12.003906 101.335938 13.570312 101.335938 22.117188 L 101.335938 35.324219 C 101.335938 37.882812 101.335938 40.671875 102.5 43.054688 L 92.5625 43.054688 C 92.214844 42.125 92.09375 41.195312 91.976562 40.207031 C 89.425781 42.886719 85.648438 43.925781 82.046875 43.925781 C 76.292969 43.925781 71.761719 41.023438 71.761719 34.796875 C 71.761719 24.96875 82.457031 25.726562 89.304688 24.328125 C 90.996094 23.980469 91.921875 23.398438 91.921875 21.539062 C 91.921875 19.265625 89.1875 18.398438 87.160156 18.398438 C 84.429688 18.398438 82.683594 19.613281 82.222656 22.179688 Z M 72.980469 22.179688 " fill-opacity="1" fill-rule="nonzero"/></svg>